<?xml version="1.0" encoding="UTF-8"?>
<svg width="80mm" height="80mm" version="1.1" viewBox="0 0 80 80" xmlns="http://www.w3.org/2000/svg">
 <g transform="translate(-44.919 -84.518)">
  <g transform="matrix(.99542 0 0 1.0311 .20591 -2.6254)" fill="#668000">
   <path d="m113.61 123.6c0.32671 7.1903-3.2336 13.603-6.9199 18.919-4.7466 6.8459-13.418 10.401-22.4 10.401-5.7455 0-11.044-1.751-15.629-4.5083-10.047-6.0425-15.612-15.261-13.691-24.812 1.6225-8.0678 3.5775-15.481 8.8504-20.992 5.5373-5.7869 12.752-8.9419 20.47-8.3283 6.5 0.51675 12.742 1.8745 17.413 5.7286 6.472 5.3404 11.467 13.917 11.907 23.592z" fill-rule="evenodd" stroke-width=".19547"/>
   <g>
    <path d="m80.694 97.373-1.9482-8.0475c-14.94-4.6816 15.24-7.8173 2.6536-0.27557z"/>
    <path d="m94.606 98.072 1.3112-6.4997c-9.2564-8.4561 13.707-0.51244 2.019 0.69857z"/>
    <path d="m102.87 103.68 4.5035-5.0147c-1.8887-11.718 13.043 6.3693 1.6589 2.0894z"/>
    <path d="m108.72 111.1 6.8227-2.393c0.98779-11.409 6.8143 10.08 0.24501 2.026z"/>
    <path d="m110.38 131.19 7.1246 2.2911c10.653-9.3146-1.1555 15.438-1.0384 2.1764z"/>
    <path d="m104.17 142.32 7.1792 4.1251c11.254-8.2228-7.6101 16.459-3.0675 2.4751z"/>
    <path d="m93.57 148.34 4.0775 7.2064c16.886-0.61774-10.882 10.329-2.4767 0.99169z"/>
    <path d="m79.455 149.2-0.78622 8.4884c12.223 8.0572-16.479 3.3904-2.0071-0.61637z"/>
    <path d="m67.396 144.93-2.8446 7.9028c3.5888 8.9333-15.536-2.2447-3.6362-2.3635z"/>
    <path d="m59.242 133.97-5.8554 5.8543c6.1107 13.237-11.503-10.273-0.84762-1.4922z"/>
    <path d="m57.301 123.53-8.0534 1.9239c-3.3274 11.287-7.7011-14.564-0.19757-1.9548z"/>
    <path d="m110.28 121.55 7.7721-1.3252c8.7072-14.829 10.369 15.4 0.48509 2.586z"/>
    <path d="m69.121 104.27-7.4946-8.1285c-15.374 2.9575 12.753-14.642 2.2061-1.5002z"/>
    <path d="m60.369 113.7-7.4629-2.5431c-14.727 8.8794-1.7668-18.481 0.80736-2.5042z"/>
   </g>
  </g>
 </g>
</svg>
